<svg width="18" height="18" viewBox="0 0 18 18" fill="none" xmlns="http://www.w3.org/2000/svg">
<path d="M17.3998 0.613143C17.2765 0.489539 17.1299 0.391475 16.9686 0.324567C16.8073 0.257658 16.6344 0.223218 16.4598 0.223218C16.2852 0.223218 16.1123 0.257658 15.951 0.324567C15.7897 0.391475 15.6432 0.489539 15.5198 0.613143L8.99981 7.11981L2.47981 0.59981C2.35637 0.476367 2.20982 0.378447 2.04853 0.31164C1.88725 0.244834 1.71438 0.210449 1.53981 0.210449C1.36524 0.210449 1.19237 0.244834 1.03109 0.31164C0.8698 0.378447 0.723252 0.476367 0.59981 0.59981C0.476367 0.723252 0.378447 0.8698 0.31164 1.03109C0.244834 1.19237 0.210449 1.36524 0.210449 1.53981C0.210449 1.71438 0.244834 1.88725 0.31164 2.04853C0.378447 2.20982 0.476367 2.35637 0.59981 2.47981L7.11981 8.99981L0.59981 15.5198C0.476367 15.6433 0.378447 15.7898 0.31164 15.9511C0.244834 16.1124 0.210449 16.2852 0.210449 16.4598C0.210449 16.6344 0.244834 16.8072 0.31164 16.9685C0.378447 17.1298 0.476367 17.2764 0.59981 17.3998C0.723252 17.5233 0.8698 17.6212 1.03109 17.688C1.19237 17.7548 1.36524 17.7892 1.53981 17.7892C1.71438 17.7892 1.88725 17.7548 2.04853 17.688C2.20982 17.6212 2.35637 17.5233 2.47981 17.3998L8.99981 10.8798L15.5198 17.3998C15.6433 17.5233 15.7898 17.6212 15.9511 17.688C16.1124 17.7548 16.2852 17.7892 16.4598 17.7892C16.6344 17.7892 16.8072 17.7548 16.9685 17.688C17.1298 17.6212 17.2764 17.5233 17.3998 17.3998C17.5233 17.2764 17.6212 17.1298 17.688 16.9685C17.7548 16.8072 17.7892 16.6344 17.7892 16.4598C17.7892 16.2852 17.7548 16.1124 17.688 15.9511C17.6212 15.7898 17.5233 15.6433 17.3998 15.5198L10.8798 8.99981L17.3998 2.47981C17.9065 1.97314 17.9065 1.11981 17.3998 0.613143Z" fill="black"/>
</svg>
