<svg width="28" height="22" viewBox="0 0 28 22" fill="none" xmlns="http://www.w3.org/2000/svg">
<path d="M24.667 0.333252H3.33366C1.86699 0.333252 0.680326 1.53325 0.680326 2.99992L0.666992 18.9999C0.666992 20.4666 1.86699 21.6666 3.33366 21.6666H24.667C26.1337 21.6666 27.3337 20.4666 27.3337 18.9999V2.99992C27.3337 1.53325 26.1337 0.333252 24.667 0.333252ZM24.1337 5.99992L14.707 11.8933C14.2803 12.1599 13.7203 12.1599 13.2937 11.8933L3.86699 5.99992C3.7333 5.92487 3.61622 5.82347 3.52284 5.70186C3.42947 5.58025 3.36174 5.44096 3.32376 5.29241C3.28578 5.14387 3.27833 4.98917 3.30187 4.83766C3.32541 4.68616 3.37944 4.541 3.4607 4.41099C3.54196 4.28097 3.64876 4.16879 3.77463 4.08125C3.9005 3.9937 4.04282 3.9326 4.19299 3.90165C4.34315 3.8707 4.49804 3.87054 4.64826 3.90118C4.79849 3.93182 4.94094 3.99263 5.06699 4.07992L14.0003 9.66659L22.9337 4.07992C23.0597 3.99263 23.2022 3.93182 23.3524 3.90118C23.5026 3.87054 23.6575 3.8707 23.8077 3.90165C23.9578 3.9326 24.1002 3.9937 24.226 4.08125C24.3519 4.16879 24.4587 4.28097 24.5399 4.41099C24.6212 4.541 24.6752 4.68616 24.6988 4.83766C24.7223 4.98917 24.7149 5.14387 24.6769 5.29241C24.6389 5.44096 24.5712 5.58025 24.4778 5.70186C24.3844 5.82347 24.2674 5.92487 24.1337 5.99992Z" fill="#333333"/>
</svg>
