<svg width="24" height="24" viewBox="0 0 24 24" fill="none" xmlns="http://www.w3.org/2000/svg">
<path d="M22 0H2C1.46957 0 0.960859 0.210714 0.585786 0.585786C0.210714 0.960859 0 1.46957 0 2V22C0 22.5304 0.210714 23.0391 0.585786 23.4142C0.960859 23.7893 1.46957 24 2 24H22C22.5304 24 23.0391 23.7893 23.4142 23.4142C23.7893 23.0391 24 22.5304 24 22V2C24 1.46957 23.7893 0.960859 23.4142 0.585786C23.0391 0.210714 22.5304 0 22 0ZM14.07 17.7075L11.3888 20.3888C10.3528 21.3978 8.96111 21.9582 7.515 21.9487C6.06889 21.9391 4.68471 21.3604 3.66213 20.3379C2.63955 19.3153 2.06086 17.9311 2.05134 16.485C2.04182 15.0389 2.60223 13.6472 3.61125 12.6112L6.2925 9.92875C6.38533 9.83584 6.49555 9.76212 6.61686 9.71181C6.73818 9.6615 6.86822 9.63557 6.99956 9.63551C7.1309 9.63545 7.26096 9.66126 7.38232 9.71147C7.50368 9.76168 7.61396 9.8353 7.70687 9.92813C7.79979 10.021 7.8735 10.1312 7.92382 10.2525C7.97413 10.3738 8.00006 10.5038 8.00011 10.6352C8.00017 10.7665 7.97436 10.8966 7.92415 11.0179C7.87395 11.1393 7.80033 11.2496 7.7075 11.3425L5.025 14.025C4.36859 14.6814 3.99982 15.5717 3.99982 16.5C3.99982 17.4283 4.36859 18.3186 5.025 18.975C5.68141 19.6314 6.57169 20.0002 7.5 20.0002C8.42831 20.0002 9.31859 19.6314 9.975 18.975L12.6562 16.2925C12.8439 16.105 13.0983 15.9998 13.3636 15.9999C13.6288 16 13.8832 16.1055 14.0706 16.2931C14.2581 16.4808 14.3634 16.7352 14.3632 17.0004C14.3631 17.2657 14.2576 17.52 14.07 17.7075ZM20.3888 11.3888L17.7075 14.07C17.52 14.2576 17.2657 14.3631 17.0004 14.3632C16.7352 14.3634 16.4808 14.2581 16.2931 14.0706C16.1055 13.8832 16 13.6288 15.9999 13.3636C15.9998 13.0983 16.105 12.8439 16.2925 12.6562L18.975 9.975C19.6314 9.31859 20.0002 8.42831 20.0002 7.5C20.0002 6.57169 19.6314 5.68141 18.975 5.025C18.3186 4.36859 17.4283 3.99982 16.5 3.99982C15.5717 3.99982 14.6814 4.36859 14.025 5.025L11.3425 7.7075C11.2496 7.80033 11.1393 7.87395 11.0179 7.92415C10.8966 7.97436 10.7665 8.00017 10.6352 8.00011C10.5038 8.00006 10.3738 7.97413 10.2525 7.92382C10.1312 7.8735 10.021 7.79979 9.92813 7.70687C9.8353 7.61396 9.76168 7.50368 9.71147 7.38232C9.66126 7.26096 9.63545 7.1309 9.63551 6.99956C9.63563 6.73431 9.74111 6.47997 9.92875 6.2925L12.6112 3.61125C13.6472 2.60223 15.0389 2.04182 16.485 2.05134C17.9311 2.06086 19.3153 2.63955 20.3379 3.66213C21.3604 4.68471 21.9391 6.06889 21.9487 7.515C21.9582 8.96111 21.3978 10.3528 20.3888 11.3888Z" fill="#07352E"/>
</svg>
