<svg width="28" height="32" viewBox="0 0 28 32" fill="none" xmlns="http://www.w3.org/2000/svg">
<path d="M24.875 14C25.3125 14 25.7188 14.0781 26.0938 14.2344C26.4688 14.3906 26.8021 14.6094 27.0938 14.8906C27.3854 15.1719 27.6042 15.5 27.75 15.875C27.8958 16.25 27.9792 16.6562 28 17.0938C28 17.5 27.9219 17.8958 27.7656 18.2812C27.6094 18.6667 27.3854 19.0052 27.0938 19.2969L15.8906 30.5312L10 32L11.4688 26.1094L22.6719 14.8906C22.9635 14.599 23.3021 14.3802 23.6875 14.2344C24.0729 14.0885 24.4688 14.0104 24.875 14ZM25.6719 17.8906C25.8906 17.6719 26 17.4062 26 17.0938C26 16.7708 25.8958 16.5104 25.6875 16.3125C25.4792 16.1146 25.2083 16.0104 24.875 16C24.7292 16 24.5885 16.0208 24.4531 16.0625C24.3177 16.1042 24.1979 16.1823 24.0938 16.2969L13.2812 27.1406L12.75 29.25L14.8594 28.7188L25.6719 17.8906ZM6 14H4V12H6V14ZM20 14H8V12H20V14ZM4 18H6V20H4V18ZM6 8H4V6H6V8ZM20 8H8V6H20V8ZM2 26H8.92188L8.42188 28H0V0H24V11.6094C23.3021 11.7135 22.6354 11.9427 22 12.2969V2H2V26ZM8 18H16.0312L14.0312 20H8V18Z" fill="white"/>
</svg>
