<svg width="34" height="52" viewBox="0 0 34 52" fill="none" xmlns="http://www.w3.org/2000/svg">
<path d="M28.5646 0.857147L25.7212 10.4055L28.5858 11.0544L28.2719 12.7315L22.977 17.9578L17.7582 13.2469L15.3865 12.7998C16.2192 11.2344 16.8744 9.21998 17.0488 7.38214C18.0642 7.13307 20.5875 6.7622 21.7199 6.2833C21.2135 5.15977 18.6598 4.43649 16.7848 4.50094C16.6091 2.23826 15.8849 1.3271 13.3236 1.45294C10.7622 1.57867 9.98234 2.17403 10.2673 5.43177C8.35548 5.88261 6.40668 6.80994 6.24018 8.39042C7.0377 8.35688 9.58023 8.07406 10.367 8.0615C10.4339 9.60178 10.8129 11.1035 11.3773 12.0351L7.81455 11.366L0.857178 19.6306L8.69496 25.7344L8.85963 27.5744L5.39493 51.1429H9.28372L13.1664 32.6541L18.0177 51.1429H21.8148L21.4536 49.3506L23.1859 51.1429L29.5764 15.9096C30.0841 15.4137 30.5153 14.9831 30.8019 14.6739C30.8199 13.5228 30.5449 12.6047 30.2857 11.9975L30.3841 11.462L33.1443 12.0873L34 1.91524L31.6849 9.42885L30.5856 9.18241L31.258 1.24528L29.0723 8.84289L27.9356 8.58803L28.5646 0.857147ZM31.258 1.24528L31.2582 1.24418H31.258V1.24528ZM8.64429 14.9844L8.67915 21.9862L5.48705 19.3917L8.64429 14.9844ZM17.5651 17.306L22.7206 22.3241C22.7206 22.3241 25.0506 20.1988 27.268 18.115L21.4475 49.3097L17.109 27.7317L17.5651 17.306Z" fill="#00383D"/>
</svg>
