<svg width="602" height="357" viewBox="0 0 602 357" fill="none" xmlns="http://www.w3.org/2000/svg">
<rect x="1.8103" y="0.929199" width="255" height="97" rx="5" fill="#99D595"/>
<path d="M38.8543 25.8372V27.3492C38.8543 29.0412 38.0623 29.7612 36.3343 29.7612H32.9863V33.3612H38.8543V50.9292H43.1743V25.8372H38.8543ZM60.6321 51.2892C67.3641 51.2892 69.0561 44.6292 69.0561 38.4372C69.0561 32.1732 67.2921 25.4412 60.3801 25.4412C52.7841 25.4412 51.9201 33.0372 51.9201 38.4012C51.9201 43.6932 52.8561 51.2892 60.6321 51.2892ZM60.5241 47.1492C56.4561 47.1492 56.3481 42.5052 56.3481 38.4012C56.3481 34.1532 56.4561 29.5812 60.3801 29.5812C64.3041 29.5812 64.4121 34.1172 64.4121 38.3652C64.4121 42.3972 64.3401 47.1492 60.5241 47.1492ZM71.1058 50.9292H76.3978L80.0698 44.9532L83.7418 50.9292H89.0338L82.9138 42.0012L89.0338 33.1812H83.7418L80.0698 39.0492L76.3978 33.1812H71.1058L77.1898 42.0012L71.1058 50.9292ZM112.724 37.3572V41.4972H118.34V41.8212C118.34 45.2052 115.964 47.1852 111.932 47.1852C106.82 47.1852 103.76 44.0172 103.76 38.2932C103.76 32.7852 106.604 29.5452 111.428 29.5452C114.812 29.5452 117.296 31.1292 118.412 34.2252L122.552 32.6052C120.716 27.8532 116.612 25.2612 111.5 25.2612C103.976 25.2612 99.2603 30.8772 99.2603 38.3292C99.2603 46.2852 104.624 51.4692 111.644 51.4692C114.884 51.4692 117.584 50.3532 119.06 48.3372L119.6 50.9292H122.804V37.3572H112.724ZM136.696 32.8212C134.68 32.8212 132.7 34.0092 131.944 36.2052V33.1812H127.588V50.9292H131.908V42.0012C131.908 38.6532 133.204 37.0332 135.832 37.0332C136.696 37.0332 137.38 37.2492 137.992 37.6452L140.08 33.8292C138.928 33.1092 137.884 32.8212 136.696 32.8212ZM148.677 51.2892C154.149 51.2892 157.569 47.0412 157.569 42.0372C157.569 36.9972 154.149 32.8212 148.677 32.8212C143.169 32.8212 139.785 36.9972 139.785 42.0372C139.785 47.0412 143.169 51.2892 148.677 51.2892ZM148.677 47.5092C145.401 47.5092 144.105 44.9172 144.105 42.0372C144.105 39.1212 145.401 36.6012 148.677 36.6012C151.953 36.6012 153.249 39.1212 153.249 42.0372C153.249 44.9172 151.953 47.5092 148.677 47.5092ZM163.661 50.9292H167.549L171.041 39.3012L174.533 50.9292H178.421L183.893 33.1812H179.285L176.225 44.2692L172.877 33.1812H169.169L165.821 44.3052L162.797 33.1812H158.189L163.661 50.9292ZM196.646 36.6012V33.1812H192.218V26.5572L187.898 29.7612V33.1812H185.018V36.6012H187.898V45.9612C187.898 49.7412 190.418 51.2892 193.406 51.2892C194.486 51.2892 195.566 51.1092 196.646 50.7492V47.2932C195.854 47.5452 195.098 47.6892 194.486 47.6892C193.082 47.6892 192.218 47.0412 192.218 45.6372V36.6012H196.646ZM209.273 32.8212C206.933 32.8212 205.097 33.6492 203.909 35.1972V25.8372H199.589V50.9292H203.909V43.8372C203.909 38.7252 205.097 36.6012 207.941 36.6012C210.173 36.6012 211.217 37.8612 211.217 40.5612V50.9292H215.537V39.4812C215.537 35.2332 213.269 32.8212 209.273 32.8212ZM39.6689 77.1692C42.5289 77.1692 44.3889 75.5292 44.3889 73.0092C44.3889 71.0492 43.4489 69.9692 40.4289 68.8092C38.2889 67.9892 37.5289 67.4092 37.5289 66.3692C37.5289 65.4092 38.3689 64.6292 39.5289 64.6292C40.5489 64.6292 41.4489 65.2092 41.9689 66.2692L43.7489 65.1692C42.8889 63.5492 41.4289 62.7292 39.5889 62.7292C37.0689 62.7292 35.3889 64.2092 35.3889 66.4292C35.3889 68.3892 36.4089 69.4292 39.2889 70.5292C41.4889 71.3892 42.2489 72.0492 42.2489 73.1892C42.2489 74.4492 41.3089 75.2692 39.7089 75.2692C37.9889 75.2692 36.8089 74.2492 36.6089 72.5492L34.4689 73.0692C34.8689 75.5492 36.9489 77.1692 39.6689 77.1692ZM46.5398 65.1492H48.7398V62.9892H46.5398V65.1492ZM46.6198 76.9292H48.6798V67.0692H46.6198V76.9292ZM56.8966 66.8892C55.6166 66.8892 54.4966 67.3492 53.8166 68.2892V67.0692H51.7566V76.9292H53.8166V72.8292C53.8166 70.7292 54.1766 68.6892 56.2966 68.6892C57.9966 68.6892 58.2166 70.0292 58.2166 71.1892V76.9292H60.2766V70.6692C60.2766 68.2492 59.0766 66.8892 56.8966 66.8892ZM66.9633 77.1092C68.8633 77.1092 70.3633 76.0892 71.0233 74.2492L69.1433 73.5292C68.8433 74.6292 68.0033 75.3092 66.9633 75.3092C65.1233 75.3092 64.4033 73.7492 64.4033 72.0292C64.4033 70.3092 65.1433 68.6892 66.9433 68.6892C68.0233 68.6892 68.8433 69.3892 69.1633 70.4892L71.1233 69.7292C70.3633 67.8092 68.8433 66.8892 66.9433 66.8892C63.8033 66.8892 62.3033 69.4292 62.3033 72.0292C62.3033 74.6692 63.8633 77.1092 66.9633 77.1092ZM81.2461 71.7492C81.2461 69.1692 79.8461 66.8892 76.7861 66.8892C73.6461 66.8892 72.2061 69.4092 72.2061 72.0492C72.2061 74.7492 73.6861 77.1092 76.9461 77.1092C78.5661 77.1092 79.8061 76.5892 80.9261 75.3692L79.4861 74.1292C78.7461 74.9692 77.9261 75.2492 76.9661 75.2492C75.2861 75.2492 74.3461 74.2292 74.2661 72.6492H81.1861C81.2261 72.3492 81.2461 72.0492 81.2461 71.7492ZM74.2661 70.9892C74.4061 69.7692 75.2061 68.6092 76.7861 68.6092C78.2461 68.6092 79.2261 69.5492 79.2661 70.9492V70.9892H74.2661ZM88.9534 76.9292H91.0934V62.9892H88.9534V76.9292ZM99.6895 66.8892C98.4095 66.8892 97.2895 67.3492 96.6095 68.2892V67.0692H94.5495V76.9292H96.6095V72.8292C96.6095 70.7292 96.9695 68.6892 99.0895 68.6892C100.79 68.6892 101.01 70.0292 101.01 71.1892V76.9292H103.07V70.6692C103.07 68.2492 101.87 66.8892 99.6895 66.8892ZM109.756 77.1092C111.656 77.1092 113.156 76.0892 113.816 74.2492L111.936 73.5292C111.636 74.6292 110.796 75.3092 109.756 75.3092C107.916 75.3092 107.196 73.7492 107.196 72.0292C107.196 70.3092 107.936 68.6892 109.736 68.6892C110.816 68.6892 111.636 69.3892 111.956 70.4892L113.916 69.7292C113.156 67.8092 111.636 66.8892 109.736 66.8892C106.596 66.8892 105.096 69.4292 105.096 72.0292C105.096 74.6692 106.656 77.1092 109.756 77.1092ZM124.039 71.7492C124.039 69.1692 122.639 66.8892 119.579 66.8892C116.439 66.8892 114.999 69.4092 114.999 72.0492C114.999 74.7492 116.479 77.1092 119.739 77.1092C121.359 77.1092 122.599 76.5892 123.719 75.3692L122.279 74.1292C121.539 74.9692 120.719 75.2492 119.759 75.2492C118.079 75.2492 117.139 74.2292 117.059 72.6492H123.979C124.019 72.3492 124.039 72.0492 124.039 71.7492ZM117.059 70.9892C117.199 69.7692 117.999 68.6092 119.579 68.6092C121.039 68.6092 122.019 69.5492 122.059 70.9492V70.9892H117.059ZM131.348 66.8692C130.188 66.8692 129.048 67.2692 128.368 68.1692V67.0692H126.308V81.0092H128.368V75.8092C128.988 76.6092 130.108 77.1092 131.348 77.1092C133.908 77.1092 135.568 75.1292 135.568 72.0092C135.568 69.0092 134.048 66.8692 131.348 66.8692ZM130.868 75.3092C129.028 75.3092 128.168 73.8892 128.168 71.9892C128.168 70.0292 129.068 68.6892 130.888 68.6892C132.628 68.6892 133.508 69.9092 133.508 71.9892C133.508 74.0092 132.648 75.3092 130.868 75.3092ZM142.691 75.1492C142.251 75.2892 141.851 75.3692 141.511 75.3692C140.731 75.3692 140.271 74.9692 140.271 74.1292V68.7292H142.691V67.0692H140.271V63.4092L138.211 64.9492V67.0692H136.591V68.7292H138.211V74.3092C138.211 76.2892 139.451 77.1092 141.011 77.1092C141.551 77.1092 142.131 77.0092 142.711 76.8292L142.691 75.1492ZM144.899 65.1492H147.099V62.9892H144.899V65.1492ZM144.979 76.9292H147.039V67.0692H144.979V76.9292ZM154.116 77.1092C157.076 77.1092 158.976 74.8092 158.976 71.9892C158.976 69.1492 157.076 66.8892 154.116 66.8892C151.136 66.8892 149.236 69.1492 149.236 71.9892C149.236 74.8092 151.136 77.1092 154.116 77.1092ZM154.116 75.3092C152.196 75.3092 151.296 73.8092 151.296 71.9892C151.296 70.1692 152.196 68.6892 154.116 68.6892C156.016 68.6892 156.916 70.1692 156.916 71.9892C156.916 73.7892 156.036 75.3092 154.116 75.3092ZM166.33 66.8892C165.05 66.8892 163.93 67.3492 163.25 68.2892V67.0692H161.19V76.9292H163.25V72.8292C163.25 70.7292 163.61 68.6892 165.73 68.6892C167.43 68.6892 167.65 70.0292 167.65 71.1892V76.9292H169.71V70.6692C169.71 68.2492 168.51 66.8892 166.33 66.8892Z" fill="#07352E"/>
<rect x="290.81" y="294.07" width="41.016" height="32.2269" fill="#EED9A2"/>
<path d="M310.849 277.452V277.921C310.849 278.741 310.454 279.019 309.721 279.019H308.564V280.763H310.849V287.662H313.061V277.452H310.849Z" fill="white"/>
<rect x="238.81" y="260.646" width="41.016" height="65.9186" fill="#00383D"/>
<path d="M250.441 255.076C252.433 255.076 254.352 254.006 254.352 251.721C254.352 250.71 253.928 249.817 252.829 249.333C253.473 248.967 253.81 248.279 253.81 247.429C253.81 245.613 252.272 244.573 250.5 244.573C248.654 244.573 247.028 245.715 247.028 247.707L249.211 247.854C249.225 247.136 249.679 246.682 250.412 246.682C251.071 246.682 251.598 247.034 251.598 247.766C251.598 248.264 251.408 248.747 250.016 248.747V250.476C250.998 250.476 252.14 250.403 252.14 251.619C252.14 252.644 251.305 252.966 250.514 252.966C249.518 252.966 248.727 252.454 248.727 251.472L246.53 251.604C246.53 253.977 248.42 255.076 250.441 255.076ZM258.815 244.719V245.188C258.815 246.008 258.42 246.287 257.687 246.287H256.53V248.03H258.815V254.929H261.027V244.719H258.815ZM267.951 255.076C269.943 255.076 271.862 254.006 271.862 251.721C271.862 250.71 271.437 249.817 270.339 249.333C270.983 248.967 271.32 248.279 271.32 247.429C271.32 245.613 269.782 244.573 268.009 244.573C266.164 244.573 264.538 245.715 264.538 247.707L266.72 247.854C266.735 247.136 267.189 246.682 267.922 246.682C268.581 246.682 269.108 247.034 269.108 247.766C269.108 248.264 268.918 248.747 267.526 248.747V250.476C268.507 250.476 269.65 250.403 269.65 251.619C269.65 252.644 268.815 252.966 268.024 252.966C267.028 252.966 266.237 252.454 266.237 251.472L264.04 251.604C264.04 253.977 265.929 255.076 267.951 255.076Z" fill="white"/>
<path d="M251.391 352.246C254.233 352.246 256.138 350.137 256.138 346.973C256.138 343.794 254.233 341.684 251.391 341.684C248.564 341.684 246.66 343.794 246.66 346.973C246.66 350.137 248.564 352.246 251.391 352.246ZM251.391 351.001C249.297 351.001 247.964 349.434 247.964 346.973C247.964 344.497 249.297 342.93 251.391 342.93C253.486 342.93 254.834 344.497 254.834 346.973C254.834 349.434 253.486 351.001 251.391 351.001ZM260.967 352.202C262.314 352.202 263.384 351.47 263.867 350.151L262.71 349.712C262.461 350.576 261.802 351.089 260.952 351.089C259.517 351.089 258.901 349.844 258.901 348.481C258.901 347.119 259.517 345.83 260.952 345.83C261.787 345.83 262.446 346.357 262.739 347.236L263.94 346.753C263.369 345.376 262.285 344.717 260.952 344.717C258.711 344.717 257.612 346.577 257.612 348.481C257.612 350.459 258.784 352.202 260.967 352.202ZM268.876 345.874V344.849H267.104V342.197L265.844 343.135V344.849H264.657V345.874H265.844V350.269C265.844 351.631 266.664 352.202 267.704 352.202C268.085 352.202 268.48 352.129 268.876 351.997V350.928C268.554 351.03 268.261 351.089 268.012 351.089C267.44 351.089 267.104 350.796 267.104 350.137V345.874H268.876ZM273.473 352.202C275.597 352.202 277.003 350.547 277.003 348.452C277.003 346.343 275.582 344.717 273.473 344.717C271.349 344.717 269.972 346.343 269.972 348.452C269.972 350.562 271.349 352.202 273.473 352.202ZM273.473 351.089C272.008 351.089 271.231 349.932 271.231 348.452C271.231 346.973 271.993 345.83 273.473 345.83C274.952 345.83 275.743 346.958 275.743 348.452C275.743 349.917 274.952 351.089 273.473 351.089ZM282.358 344.717C281.406 344.717 280.571 345.098 280.073 345.757V341.86H278.813V352.07H280.073V351.177C280.585 351.851 281.406 352.202 282.358 352.202C284.423 352.202 285.522 350.605 285.522 348.452C285.522 346.167 284.291 344.717 282.358 344.717ZM282.123 351.06C280.688 351.06 279.97 349.946 279.97 348.452C279.97 346.914 280.732 345.845 282.123 345.845C283.486 345.845 284.262 346.87 284.262 348.452C284.262 349.99 283.544 351.06 282.123 351.06ZM293.299 348.188C293.299 346.431 292.318 344.717 290.106 344.717C287.908 344.717 286.824 346.504 286.824 348.496C286.824 350.503 287.923 352.202 290.223 352.202C291.365 352.202 292.244 351.836 293.065 350.957L292.2 350.181C291.585 350.84 290.97 351.045 290.237 351.045C288.904 351.045 288.128 350.21 288.084 348.833H293.255C293.284 348.643 293.299 348.394 293.299 348.188ZM288.084 347.808C288.172 346.724 288.86 345.771 290.091 345.771C291.307 345.771 292.039 346.562 292.083 347.676C292.083 347.734 292.083 347.778 292.098 347.808H288.084ZM298.489 344.717C297.728 344.717 296.863 345.054 296.409 345.976V344.849H295.149V352.07H296.409V348.174C296.409 346.68 297.127 345.903 298.226 345.903C298.548 345.903 298.855 345.976 299.163 346.123L299.778 345.068C299.354 344.819 298.943 344.717 298.489 344.717ZM306.444 350.884C308.758 349.448 310.955 347.324 310.955 344.834C310.955 342.886 309.681 341.714 307.85 341.714C305.682 341.714 304.495 343.354 304.495 345.317L305.741 345.405C305.77 344.043 306.37 342.93 307.835 342.93C309.051 342.93 309.681 343.706 309.681 344.863C309.681 347.471 306.517 349.595 304.32 350.957V352.07H311.41V350.884H306.444ZM316.335 341.86V342.637C316.335 343.267 315.998 343.486 315.427 343.486H313.845V344.643H316.335V352.07H317.595V341.86H316.335Z" fill="white"/>
<rect x="425.81" y="239.938" width="41.016" height="86.4267" fill="#EED9A2"/>
<path d="M448.852 226.232V220.519H446.948L442.07 227.053V228.342H446.64V230.729H448.852V228.342H450.464V226.232H448.852ZM444.824 226.232L446.64 223.684V226.232H444.824Z" fill="white"/>
<rect x="373.81" y="184.938" width="41.016" height="140.626" fill="#00383D"/>
<path d="M385.5 176.09C387.595 176.09 389.47 175.021 389.47 172.838C389.47 171.842 389.103 170.978 388.239 170.377C388.722 169.938 389.015 169.396 389.015 168.605C389.015 166.701 387.346 165.558 385.5 165.558C383.654 165.558 381.984 166.701 381.984 168.605C381.984 169.396 382.277 169.938 382.761 170.377C381.896 170.978 381.53 171.842 381.53 172.838C381.53 175.021 383.405 176.09 385.5 176.09ZM385.5 169.762C384.723 169.762 384.196 169.381 384.196 168.751C384.196 168.092 384.679 167.667 385.5 167.667C386.32 167.667 386.804 168.092 386.804 168.751C386.804 169.381 386.276 169.762 385.5 169.762ZM385.5 173.996C384.46 173.996 383.742 173.527 383.742 172.619C383.742 171.71 384.474 171.256 385.5 171.256C386.525 171.256 387.258 171.71 387.258 172.619C387.258 173.527 386.54 173.996 385.5 173.996ZM394.46 168.795C394.108 168.795 393.684 168.825 393.244 169.03L393.479 167.829H397.595V165.719H391.677L390.651 171.154L392.688 171.652C392.922 171.256 393.361 170.861 394.152 170.861C395.324 170.861 395.691 171.593 395.691 172.311C395.691 173.073 395.31 173.981 394.152 173.981C393.024 173.981 392.556 173.146 392.526 172.545L390.358 172.912C390.578 174.669 392.16 176.09 394.182 176.09C396.452 176.09 398.034 174.259 398.034 172.311C398.034 170.465 396.599 168.795 394.46 168.795ZM402.937 176.076C404.929 176.076 406.848 175.006 406.848 172.721C406.848 171.71 406.423 170.817 405.324 170.333C405.969 169.967 406.306 169.279 406.306 168.429C406.306 166.613 404.768 165.573 402.995 165.573C401.149 165.573 399.523 166.715 399.523 168.707L401.706 168.854C401.721 168.136 402.175 167.682 402.907 167.682C403.566 167.682 404.094 168.034 404.094 168.766C404.094 169.264 403.903 169.747 402.512 169.747V171.476C403.493 171.476 404.636 171.403 404.636 172.619C404.636 173.644 403.801 173.966 403.01 173.966C402.014 173.966 401.223 173.454 401.223 172.472L399.025 172.604C399.025 174.977 400.915 176.076 402.937 176.076Z" fill="white"/>
<path d="M401.589 351.938H403.024L399.113 341.728H398.088L394.177 351.938H395.612L396.52 349.404H400.68L401.589 351.938ZM396.945 348.247L398.6 343.618L400.256 348.247H396.945ZM408.113 344.584C407.176 344.584 406.355 344.921 405.828 345.61V344.716H404.568V354.926H405.828V351.03C406.311 351.674 407.146 352.07 408.113 352.07C410.12 352.07 411.277 350.546 411.277 348.32C411.277 346.093 410.105 344.584 408.113 344.584ZM407.879 350.957C406.443 350.957 405.725 349.829 405.725 348.32C405.725 346.752 406.487 345.683 407.879 345.683C409.241 345.683 410.017 346.708 410.017 348.32C410.017 349.887 409.285 350.957 407.879 350.957ZM416.505 344.584C415.744 344.584 414.879 344.921 414.425 345.844V344.716H413.166V351.938H414.425V348.041C414.425 346.547 415.143 345.771 416.242 345.771C416.564 345.771 416.872 345.844 417.179 345.991L417.795 344.936C417.37 344.687 416.96 344.584 416.505 344.584ZM419.015 343.266H420.421V341.728H419.015V343.266ZM419.088 351.938H420.348V344.716H419.088V351.938ZM424.228 352.07C424.55 352.07 424.931 351.982 425.268 351.865L425.254 350.825C425.049 350.883 424.814 350.942 424.609 350.942C424.184 350.942 424.008 350.678 424.008 350.239V341.728H422.749V350.312C422.749 351.499 423.349 352.07 424.228 352.07ZM432.199 350.751C434.513 349.316 436.711 347.192 436.711 344.702C436.711 342.753 435.436 341.581 433.605 341.581C431.437 341.581 430.251 343.222 430.251 345.185L431.496 345.273C431.525 343.911 432.126 342.797 433.591 342.797C434.806 342.797 435.436 343.574 435.436 344.731C435.436 347.338 432.272 349.462 430.075 350.825V351.938H437.165V350.751H432.199ZM440.596 350.751C442.911 349.316 445.108 347.192 445.108 344.702C445.108 342.753 443.834 341.581 442.002 341.581C439.834 341.581 438.648 343.222 438.648 345.185L439.893 345.273C439.922 343.911 440.523 342.797 441.988 342.797C443.204 342.797 443.834 343.574 443.834 344.731C443.834 347.338 440.669 349.462 438.472 350.825V351.938H445.562V350.751H440.596Z" fill="white"/>
<rect x="560.81" y="41.0708" width="41.016" height="287.112" fill="#EED9A2"/>
<path d="M576.455 22.3383V22.807C576.455 23.6273 576.059 23.9057 575.327 23.9057H574.17V25.6489H576.455V32.5483H578.667V22.3383H576.455ZM585.869 25.4145C585.517 25.4145 585.093 25.4438 584.653 25.6489L584.887 24.4477H589.004V22.3383H583.086L582.06 27.7729L584.096 28.271C584.331 27.8754 584.77 27.4799 585.561 27.4799C586.733 27.4799 587.099 28.2124 587.099 28.9301C587.099 29.6919 586.719 30.6001 585.561 30.6001C584.433 30.6001 583.965 29.7651 583.935 29.1645L581.767 29.5307C581.987 31.2886 583.569 32.7095 585.591 32.7095C587.861 32.7095 589.443 30.8784 589.443 28.9301C589.443 27.0844 588.008 25.4145 585.869 25.4145Z" fill="white"/>
<rect x="508.81" y="24.0708" width="41.016" height="302.493" fill="#00383D"/>
<path d="M516.808 13.8491C518.742 12.7358 520.09 10.6997 520.09 8.95647C520.09 6.93497 518.698 5.60194 516.794 5.60194C514.421 5.60194 513.146 7.6381 513.146 9.42523L515.314 9.60101C515.373 8.80998 515.622 7.74064 516.735 7.74064C517.57 7.74064 517.892 8.32658 517.892 9.02971C517.892 11.2124 514.728 13.3071 513.278 14.1714V15.9292H520.485V13.8491H516.808ZM528.142 11.4321V5.71913H526.237L521.359 12.2524V13.5415H525.93V15.9292H528.142V13.5415H529.753V11.4321H528.142ZM524.113 11.4321L525.93 8.88323V11.4321H524.113ZM534.348 16.0757C537.761 16.0757 538.054 12.8237 538.054 10.7582C538.054 8.83928 537.805 5.54335 534.348 5.54335C530.905 5.54335 530.642 8.80998 530.642 10.7582C530.642 12.8237 530.935 16.0757 534.348 16.0757ZM534.348 13.9663C533.059 13.9663 532.897 12.4868 532.897 10.8315C532.897 9.10296 533.059 7.66739 534.348 7.66739C535.637 7.66739 535.798 9.10296 535.798 10.8315C535.798 12.4868 535.637 13.9663 534.348 13.9663ZM543.102 16.0757C546.516 16.0757 546.809 12.8237 546.809 10.7582C546.809 8.83928 546.56 5.54335 543.102 5.54335C539.66 5.54335 539.396 8.80998 539.396 10.7582C539.396 12.8237 539.689 16.0757 543.102 16.0757ZM543.102 13.9663C541.813 13.9663 541.652 12.4868 541.652 10.8315C541.652 9.10296 541.813 7.66739 543.102 7.66739C544.392 7.66739 544.553 9.10296 544.553 10.8315C544.553 12.4868 544.392 13.9663 543.102 13.9663Z" fill="white"/>
<path d="M536.391 352.247C539.233 352.247 541.138 350.137 541.138 346.973C541.138 343.794 539.233 341.685 536.391 341.685C533.564 341.685 531.66 343.794 531.66 346.973C531.66 350.137 533.564 352.247 536.391 352.247ZM536.391 351.001C534.297 351.001 532.964 349.434 532.964 346.973C532.964 344.497 534.297 342.93 536.391 342.93C538.486 342.93 539.834 344.497 539.834 346.973C539.834 349.434 538.486 351.001 536.391 351.001ZM545.967 352.203C547.314 352.203 548.384 351.47 548.867 350.152L547.71 349.712C547.461 350.577 546.802 351.089 545.952 351.089C544.517 351.089 543.901 349.844 543.901 348.482C543.901 347.12 544.517 345.831 545.952 345.831C546.787 345.831 547.446 346.358 547.739 347.237L548.94 346.753C548.369 345.376 547.285 344.717 545.952 344.717C543.711 344.717 542.612 346.578 542.612 348.482C542.612 350.459 543.784 352.203 545.967 352.203ZM553.876 345.874V344.849H552.104V342.198L550.844 343.135V344.849H549.657V345.874H550.844V350.269C550.844 351.631 551.664 352.203 552.704 352.203C553.085 352.203 553.48 352.129 553.876 351.998V350.928C553.554 351.031 553.261 351.089 553.012 351.089C552.44 351.089 552.104 350.796 552.104 350.137V345.874H553.876ZM561.045 350.884C563.359 349.449 565.557 347.325 565.557 344.834C565.557 342.886 564.282 341.714 562.451 341.714C560.283 341.714 559.097 343.355 559.097 345.318L560.342 345.406C560.371 344.043 560.972 342.93 562.437 342.93C563.652 342.93 564.282 343.706 564.282 344.864C564.282 347.471 561.118 349.595 558.921 350.958V352.071H566.011V350.884H561.045ZM569.442 350.884C571.757 349.449 573.954 347.325 573.954 344.834C573.954 342.886 572.68 341.714 570.848 341.714C568.68 341.714 567.494 343.355 567.494 345.318L568.739 345.406C568.768 344.043 569.369 342.93 570.834 342.93C572.05 342.93 572.68 343.706 572.68 344.864C572.68 347.471 569.515 349.595 567.318 350.958V352.071H574.408V350.884H569.442Z" fill="white"/>
<ellipse cx="9.23446" cy="282.183" rx="8.42294" ry="8.78915" fill="#00383D"/>
<path d="M29.3323 286.929H30.8997V282.417H35.7923V280.967H30.8997V278.169H36.4662V276.719H29.3323V286.929ZM40.2034 279.575C38.9143 279.575 37.8889 280.073 37.0539 281.099L38.1526 282.022C38.6946 281.275 39.3977 280.894 40.1887 280.894C41.1409 280.894 41.7122 281.45 41.7122 282.388V282.637H40.0276C39.0022 282.637 38.3284 282.754 37.8303 283.003C37.1858 283.325 36.8342 283.941 36.8342 284.761C36.8342 286.138 37.8596 287.061 39.3977 287.061C40.4231 287.061 41.2581 286.636 41.7268 285.904L41.844 286.929H43.221V282.388C43.221 280.63 42.0784 279.575 40.2034 279.575ZM39.676 285.786C38.8557 285.786 38.343 285.406 38.343 284.79C38.343 284.483 38.4455 284.234 38.6653 284.087C38.9436 283.867 39.3684 283.794 40.2034 283.794H41.7122V283.823C41.7122 284.966 40.8479 285.786 39.676 285.786ZM48.7915 279.575C48.0004 279.575 47.1655 279.986 46.7992 280.894V279.707H45.2758V286.929H46.7846V283.164C46.7846 281.729 47.4145 281.011 48.4985 281.011C48.8354 281.011 49.1137 281.099 49.392 281.26L50.1245 279.942C49.685 279.678 49.2602 279.575 48.7915 279.575ZM59.0931 279.575C58.1116 279.575 57.2913 279.956 56.7493 280.996C56.3245 279.927 55.4895 279.575 54.6399 279.575C53.8928 279.575 53.1457 279.839 52.677 280.615V279.707H51.2268L51.2414 286.929H52.7502V283.941C52.7502 282.417 52.8528 280.894 54.303 280.894C55.4895 280.894 55.6507 282.036 55.6507 282.827V286.929H57.1595V283.941C57.1595 282.432 57.262 280.894 58.7269 280.894C60.0306 280.894 60.0745 282.212 60.0745 282.798V286.929H61.5833V282.359C61.5833 280.835 60.8363 279.575 59.0931 279.575ZM69.6786 283.135C69.6786 281.245 68.6532 279.575 66.412 279.575C64.1122 279.575 63.0575 281.421 63.0575 283.355C63.0575 285.332 64.1415 287.061 66.5292 287.061C67.7157 287.061 68.6239 286.68 69.4442 285.786L68.3895 284.878C67.8476 285.493 67.247 285.698 66.5438 285.698C65.3133 285.698 64.6249 284.951 64.5663 283.794H69.6347C69.664 283.574 69.6786 283.355 69.6786 283.135ZM64.5663 282.578C64.6688 281.685 65.2548 280.835 66.412 280.835C67.4813 280.835 68.1991 281.524 68.2284 282.549V282.578H64.5663ZM74.8413 279.575C74.0503 279.575 73.2153 279.986 72.8491 280.894V279.707H71.3257V286.929H72.8345V283.164C72.8345 281.729 73.4644 281.011 74.5484 281.011C74.8853 281.011 75.1636 281.099 75.4419 281.26L76.1744 279.942C75.7349 279.678 75.3101 279.575 74.8413 279.575ZM79.2175 287.061C80.5945 287.061 81.9568 286.328 81.9568 284.717C81.9568 282.051 78.0456 282.842 78.0456 281.538C78.0456 281.099 78.4704 280.791 79.1442 280.791C79.9792 280.791 80.4333 281.245 80.7116 281.758L81.8835 281.113C81.3562 280.117 80.4187 279.575 79.2028 279.575C77.7819 279.575 76.61 280.308 76.61 281.655C76.61 284.292 80.4773 283.355 80.4773 284.805C80.4773 285.318 80.0232 285.786 79.1589 285.786C78.1335 285.786 77.6501 285.142 77.4304 284.541L76.2145 285.083C76.5661 286.211 77.7233 287.061 79.2175 287.061Z" fill="#333333"/>
<ellipse cx="9.23324" cy="318.183" rx="8.42294" ry="8.78915" fill="#EED9A2"/>
<path d="M35.6007 322.929H37.3146L33.3301 312.719H32.1143L28.1299 322.929H29.8291L30.6787 320.615H34.7657L35.6007 322.929ZM31.1914 319.194L32.7295 315.004L34.253 319.194H31.1914ZM41.2032 321.904C40.251 321.772 39.46 321.611 39.46 321.025C39.46 320.805 39.5625 320.644 39.753 320.527C40.1778 320.717 40.6465 320.834 41.1739 320.834C42.7413 320.834 44.0304 319.824 44.0304 318.256C44.0304 317.773 43.9132 317.333 43.6934 316.953L44.7188 316.118L43.9278 315.151L42.8585 316.074C42.3751 315.751 41.7745 315.576 41.1299 315.576C39.5332 315.576 38.2442 316.645 38.2442 318.168C38.2442 318.798 38.4639 319.37 38.8448 319.824C38.376 320.175 38.127 320.629 38.127 321.245C38.127 321.992 38.4932 322.431 39.0205 322.709L37.9365 323.471C37.9219 323.544 37.9072 323.618 37.9072 323.793C37.9072 325.258 39.1231 326.049 41.2325 326.049C43.1368 326.049 44.4845 325.419 44.4845 323.955C44.4845 322.285 42.6534 322.109 41.2032 321.904ZM41.1592 316.835C41.9942 316.835 42.5216 317.377 42.5216 318.212C42.5216 319.003 42.0528 319.589 41.1446 319.589C40.2364 319.589 39.7383 318.989 39.7383 318.212C39.7383 317.392 40.3096 316.835 41.1592 316.835ZM41.2911 324.892C40.3389 324.892 39.4014 324.658 39.4014 323.911C39.4014 323.881 39.4014 323.837 39.4161 323.779L40.1485 323.061C40.3975 323.105 40.6465 323.149 40.8809 323.178C41.9796 323.339 42.9757 323.427 42.9757 324.086C42.9757 324.658 42.2139 324.892 41.2911 324.892ZM49.5913 315.576C48.8003 315.576 47.9653 315.986 47.5991 316.894V315.707H46.0757V322.929H47.5845V319.165C47.5845 317.729 48.2144 317.011 49.2984 317.011C49.6353 317.011 49.9136 317.099 50.1919 317.26L50.9243 315.942C50.4849 315.678 50.0601 315.576 49.5913 315.576ZM51.9681 314.301H53.5794V312.719H51.9681V314.301ZM52.0267 322.929H53.5355V315.707H52.0267V322.929ZM55.745 319.106H59.8612V317.978H55.745V319.106ZM62.3619 322.929H63.9293V312.719H62.3619V322.929ZM70.2254 315.576C69.2878 315.576 68.4675 315.913 67.9695 316.601V315.707H66.4607V322.929H67.9695V319.926C67.9695 318.388 68.2331 316.894 69.7859 316.894C71.031 316.894 71.1922 317.875 71.1922 318.725V322.929H72.701V318.344C72.701 316.572 71.822 315.576 70.2254 315.576ZM78.5067 315.561C77.6571 315.561 76.8221 315.854 76.3241 316.513V315.707H74.8153V325.918H76.3241V322.109C76.7782 322.695 77.5985 323.061 78.5067 323.061C80.3817 323.061 81.5976 321.611 81.5976 319.326C81.5976 317.128 80.4843 315.561 78.5067 315.561ZM78.1552 321.743C76.8075 321.743 76.1776 320.703 76.1776 319.311C76.1776 317.875 76.8368 316.894 78.1698 316.894C79.4442 316.894 80.0888 317.788 80.0888 319.311C80.0888 320.791 79.4589 321.743 78.1552 321.743ZM87.8108 315.707V318.637C87.8108 320.131 87.5764 321.743 86.009 321.743C84.6613 321.743 84.5881 320.541 84.5881 319.809V315.707H83.0793V320.19C83.0793 321.816 83.8263 323.061 85.5842 323.061C86.4631 323.061 87.2981 322.739 87.8108 322.021V322.929H89.3196V315.707H87.8108ZM95.1403 321.625C94.818 321.728 94.5251 321.787 94.276 321.787C93.7048 321.787 93.3678 321.494 93.3678 320.878V316.923H95.1403V315.707H93.3678V313.027L91.859 314.155V315.707H90.6725V316.923H91.859V321.01C91.859 322.46 92.7672 323.061 93.9098 323.061C94.3053 323.061 94.7302 322.988 95.155 322.856L95.1403 321.625ZM100.786 322.929H102.339V318.623H103.979C106.206 318.623 107.422 317.568 107.422 315.634C107.422 313.73 106.22 312.719 103.979 312.719H100.786V322.929ZM102.339 317.172V314.169H103.818C105.224 314.169 105.84 314.623 105.84 315.663C105.84 316.689 105.21 317.172 103.818 317.172H102.339ZM111.371 315.576C110.082 315.576 109.056 316.074 108.221 317.099L109.32 318.022C109.862 317.275 110.565 316.894 111.356 316.894C112.308 316.894 112.88 317.451 112.88 318.388V318.637H111.195C110.17 318.637 109.496 318.754 108.998 319.003C108.353 319.326 108.002 319.941 108.002 320.761C108.002 322.138 109.027 323.061 110.565 323.061C111.591 323.061 112.426 322.636 112.894 321.904L113.011 322.929H114.388V318.388C114.388 316.63 113.246 315.576 111.371 315.576ZM110.843 321.787C110.023 321.787 109.51 321.406 109.51 320.791C109.51 320.483 109.613 320.234 109.833 320.087C110.111 319.868 110.536 319.794 111.371 319.794H112.88V319.824C112.88 320.966 112.015 321.787 110.843 321.787ZM119.959 315.576C119.168 315.576 118.333 315.986 117.967 316.894V315.707H116.443V322.929H117.952V319.165C117.952 317.729 118.582 317.011 119.666 317.011C120.003 317.011 120.281 317.099 120.56 317.26L121.292 315.942C120.852 315.678 120.428 315.576 119.959 315.576ZM126.269 321.625C125.946 321.728 125.653 321.787 125.404 321.787C124.833 321.787 124.496 321.494 124.496 320.878V316.923H126.269V315.707H124.496V313.027L122.987 314.155V315.707H121.801V316.923H122.987V321.01C122.987 322.46 123.895 323.061 125.038 323.061C125.434 323.061 125.858 322.988 126.283 322.856L126.269 321.625ZM131.595 315.576C130.657 315.576 129.837 315.913 129.339 316.601V315.707H127.83V322.929H129.339V319.926C129.339 318.388 129.603 316.894 131.155 316.894C132.401 316.894 132.562 317.875 132.562 318.725V322.929H134.071V318.344C134.071 316.572 133.192 315.576 131.595 315.576ZM142.191 319.135C142.191 317.246 141.165 315.576 138.924 315.576C136.624 315.576 135.57 317.421 135.57 319.355C135.57 321.333 136.654 323.061 139.041 323.061C140.228 323.061 141.136 322.68 141.956 321.787L140.902 320.878C140.36 321.494 139.759 321.699 139.056 321.699C137.825 321.699 137.137 320.952 137.078 319.794H142.147C142.176 319.575 142.191 319.355 142.191 319.135ZM137.078 318.579C137.181 317.685 137.767 316.835 138.924 316.835C139.993 316.835 140.711 317.524 140.741 318.549V318.579H137.078ZM147.353 315.576C146.562 315.576 145.728 315.986 145.361 316.894V315.707H143.838V322.929H145.347V319.165C145.347 317.729 145.977 317.011 147.061 317.011C147.397 317.011 147.676 317.099 147.954 317.26L148.687 315.942C148.247 315.678 147.822 315.576 147.353 315.576ZM151.73 323.061C153.107 323.061 154.469 322.329 154.469 320.717C154.469 318.051 150.558 318.842 150.558 317.539C150.558 317.099 150.983 316.791 151.656 316.791C152.491 316.791 152.945 317.246 153.224 317.758L154.396 317.114C153.868 316.118 152.931 315.576 151.715 315.576C150.294 315.576 149.122 316.308 149.122 317.656C149.122 320.292 152.989 319.355 152.989 320.805C152.989 321.318 152.535 321.787 151.671 321.787C150.646 321.787 150.162 321.142 149.943 320.541L148.727 321.083C149.078 322.211 150.235 323.061 151.73 323.061Z" fill="#333333"/>
</svg>
