<svg width="22" height="22" viewBox="0 0 22 22" fill="none" xmlns="http://www.w3.org/2000/svg">
<path fill-rule="evenodd" clip-rule="evenodd" d="M6.875 0H15.125C18.9214 0 22 3.02615 22 6.75781V14.8672C22 18.5989 18.9214 21.625 15.125 21.625H6.875C3.07862 21.625 0 18.5989 0 14.8672V6.75781C0 3.02615 3.07862 0 6.875 0ZM15.125 19.5977C17.7787 19.5977 19.9375 17.4757 19.9375 14.8672V6.75781C19.9375 4.1493 17.7787 2.02734 15.125 2.02734H6.875C4.22125 2.02734 2.0625 4.1493 2.0625 6.75781V14.8672C2.0625 17.4757 4.22125 19.5977 6.875 19.5977H15.125Z" fill="white"/>
<path fill-rule="evenodd" clip-rule="evenodd" d="M5.5 10.8125C5.5 7.8269 7.96263 5.40625 11 5.40625C14.0374 5.40625 16.5 7.8269 16.5 10.8125C16.5 13.7981 14.0374 16.2188 11 16.2188C7.96263 16.2188 5.5 13.7981 5.5 10.8125ZM7.5625 10.8125C7.5625 12.675 9.10525 14.1914 11 14.1914C12.8948 14.1914 14.4375 12.675 14.4375 10.8125C14.4375 8.9487 12.8948 7.43359 11 7.43359C9.10525 7.43359 7.5625 8.9487 7.5625 10.8125Z" fill="white"/>
<ellipse cx="16.9126" cy="5.0009" rx="0.732875" ry="0.720383" fill="white"/>
</svg>
