<svg width="24" height="30" viewBox="0 0 24 30" fill="none" xmlns="http://www.w3.org/2000/svg">
<path d="M18.0333 3.66669H21.3333C21.6869 3.66669 22.026 3.80716 22.2761 4.05721C22.5261 4.30726 22.6666 4.6464 22.6666 5.00002V27C22.6666 27.3536 22.5261 27.6928 22.2761 27.9428C22.026 28.1929 21.6869 28.3334 21.3333 28.3334H2.66659C2.31296 28.3334 1.97383 28.1929 1.72378 27.9428C1.47373 27.6928 1.33325 27.3536 1.33325 27V5.00002C1.33325 4.6464 1.47373 4.30726 1.72378 4.05721C1.97383 3.80716 2.31296 3.66669 2.66659 3.66669H7.33325V5.66669H16.6666V3.66669H18.0333Z" stroke="white" stroke-width="2" stroke-linejoin="round"/>
<path d="M13.9999 11.6667L8.66659 17.0007H15.3359L9.99992 22.334M7.33325 1.66669H16.6666V5.66669H7.33325V1.66669Z" stroke="white" stroke-width="2" stroke-linecap="round" stroke-linejoin="round"/>
</svg>
