<svg width="24" height="27" viewBox="0 0 24 27" fill="none" xmlns="http://www.w3.org/2000/svg">
<path d="M1 23.4352V12.0948C1 11.8497 1.09 11.6131 1.25292 11.43L9.73064 1.90213C10.1474 1.43371 10.8875 1.45998 11.27 1.95677L12.4606 3.50297C12.6342 3.72834 12.7035 4.01695 12.6513 4.29656L11.4876 10.5308C11.3728 11.146 11.8448 11.7143 12.4706 11.7143H21.4364C22.1664 11.7143 22.6504 12.471 22.3442 13.1337L16.6682 25.4194C16.5047 25.7734 16.1503 26 15.7604 26H3.60653C3.34587 26 3.09551 25.8982 2.90878 25.7163L1.30226 24.1516C1.109 23.9633 1 23.705 1 23.4352Z" stroke="white" stroke-width="2"/>
</svg>
