<svg width="17" height="17" viewBox="0 0 17 17" fill="none" xmlns="http://www.w3.org/2000/svg">
<path d="M7.8 15.8C7.61667 15.6167 7.52067 15.3834 7.512 15.1C7.504 14.8167 7.59167 14.5834 7.775 14.4L12.675 9.50005H1.5C1.21667 9.50005 0.979 9.40405 0.787 9.21205C0.595667 9.02071 0.5 8.78338 0.5 8.50005C0.5 8.21672 0.595667 7.97905 0.787 7.78705C0.979 7.59572 1.21667 7.50005 1.5 7.50005H12.675L7.775 2.60005C7.59167 2.41672 7.504 2.18338 7.512 1.90005C7.52067 1.61672 7.61667 1.38338 7.8 1.20005C7.98333 1.01672 8.21667 0.925049 8.5 0.925049C8.78333 0.925049 9.01667 1.01672 9.2 1.20005L15.8 7.80005C15.9 7.88338 15.971 7.98738 16.013 8.11205C16.0543 8.23738 16.075 8.36672 16.075 8.50005C16.075 8.63338 16.0543 8.75838 16.013 8.87505C15.971 8.99172 15.9 9.10005 15.8 9.20005L9.2 15.8C9.01667 15.9834 8.78333 16.075 8.5 16.075C8.21667 16.075 7.98333 15.9834 7.8 15.8Z" fill="white"/>
</svg>
