<svg width="32" height="32" viewBox="0 0 32 32" fill="none" xmlns="http://www.w3.org/2000/svg">
<path d="M17.7335 23.0333C17.4668 22.7667 17.3388 22.4444 17.3495 22.0666C17.3602 21.6889 17.4993 21.3667 17.7668 21.1L21.5335 17.3333H6.66683C6.28906 17.3333 5.97217 17.2053 5.71617 16.9493C5.46017 16.6933 5.33261 16.3769 5.3335 16C5.3335 15.6222 5.4615 15.3053 5.7175 15.0493C5.9735 14.7933 6.28995 14.6658 6.66683 14.6667H21.5335L17.7335 10.8666C17.4668 10.6 17.3335 10.2831 17.3335 9.91598C17.3335 9.54887 17.4668 9.23243 17.7335 8.96665C18.0002 8.69998 18.3171 8.56665 18.6842 8.56665C19.0513 8.56665 19.3677 8.69998 19.6335 8.96665L25.7335 15.0667C25.8668 15.2 25.9615 15.3444 26.0175 15.5C26.0735 15.6555 26.1011 15.8222 26.1002 16C26.1002 16.1778 26.0722 16.3444 26.0162 16.5C25.9602 16.6555 25.8659 16.8 25.7335 16.9333L19.6002 23.0666C19.3557 23.3111 19.0504 23.4333 18.6842 23.4333C18.3179 23.4333 18.0011 23.3 17.7335 23.0333Z" fill="#333333"/>
</svg>
