<svg width="23" height="19" viewBox="0 0 23 19" fill="none" xmlns="http://www.w3.org/2000/svg">
<path d="M22.9617 3.04588C22.1435 3.39863 21.2718 3.63245 20.3629 3.74598C21.2979 3.19725 22.0115 2.33495 22.347 1.2956C21.4753 1.80649 20.5128 2.16736 19.487 2.36874C18.6593 1.50239 17.4795 0.96582 16.1925 0.96582C13.6955 0.96582 11.6853 2.95802 11.6853 5.4003C11.6853 5.7517 11.7155 6.08959 11.7898 6.41127C8.04017 6.23151 4.72229 4.46502 2.49342 1.77405C2.10429 2.43767 1.87604 3.19725 1.87604 4.01495C1.87604 5.55032 2.68042 6.91134 3.87942 7.6993C3.15479 7.68579 2.44392 7.479 1.84167 7.15327C1.84167 7.16679 1.84167 7.18436 1.84167 7.20193C1.84167 9.35632 3.40505 11.1458 5.45517 11.558C5.08805 11.6567 4.68792 11.704 4.27267 11.704C3.98392 11.704 3.69242 11.6878 3.41879 11.6283C4.00317 13.384 5.66142 14.6747 7.63317 14.7166C6.09867 15.8965 4.1503 16.6075 2.04104 16.6075C1.67117 16.6075 1.31642 16.5912 0.96167 16.5466C2.95954 17.813 5.3273 18.5361 7.88067 18.5361C16.1802 18.5361 20.7177 11.7783 20.7177 5.92065C20.7177 5.72467 20.7108 5.53545 20.7012 5.34759C21.5963 4.72316 22.3484 3.94331 22.9617 3.04588Z" fill="white"/>
</svg>
